<?xml version="1.0" encoding="UTF-8"?>
<!DOCTYPE svg PUBLIC "-//W3C//DTD SVG 1.0//EN" "http://www.w3.org/TR/2001/REC-SVG-20010904/DTD/svg10.dtd">
<!-- Creator: CorelDRAW 2021 (64-Bit) -->
<svg xmlns="http://www.w3.org/2000/svg" xml:space="preserve" width="1.76444in" height="0.684768in" version="1.0" shape-rendering="geometricPrecision" text-rendering="geometricPrecision" image-rendering="optimizeQuality" fill-rule="evenodd" clip-rule="evenodd"
viewBox="0 0 1758.84 682.6"
 xmlns:xlink="http://www.w3.org/1999/xlink"
 xmlns:xodm="http://www.corel.com/coreldraw/odm/2003">
 <g id="Layer_x0020_1">
  <metadata id="CorelCorpID_0Corel-Layer"/>
  <g id="_2533973277040">
   <path fill="#CF0000" fill-rule="nonzero" d="M46.65 23.43c0,6.37 -2.3,11.86 -6.84,16.48 -4.62,4.62 -10.11,6.93 -16.48,6.93 -6.37,0 -11.86,-2.31 -16.4,-6.93 -4.62,-4.62 -6.93,-10.11 -6.93,-16.48 0,-6.37 2.31,-11.86 6.93,-16.48 4.54,-4.62 10.03,-6.93 16.4,-6.93 6.37,0 11.86,2.31 16.48,6.93 4.54,4.62 6.84,10.11 6.84,16.48zm-42.04 74.61c0,-5.1 1.83,-9.48 5.49,-13.14 3.66,-3.66 8.04,-5.49 13.14,-5.49 5.09,0 9.47,1.83 13.14,5.49 3.67,3.66 5.49,8.04 5.49,13.14l0 223.96c0,5.09 -1.83,9.47 -5.49,13.14 -3.66,3.66 -8.04,5.49 -13.14,5.49 -5.09,0 -9.47,-1.83 -13.14,-5.49 -3.66,-3.67 -5.49,-8.05 -5.49,-13.14l0 -223.96z"/>
   <path fill="#FEFEFE" fill-rule="nonzero" d="M135.2 322c0,5.09 -1.83,9.47 -5.49,13.14 -3.66,3.66 -8.03,5.49 -13.13,5.49 -5.1,0 -9.48,-1.83 -13.14,-5.49 -3.66,-3.67 -5.49,-8.05 -5.49,-13.14l0 -224.04c0,-5.1 1.83,-9.48 5.49,-13.14 3.66,-3.66 8.04,-5.49 13.14,-5.49 5.1,0 9.47,1.83 13.13,5.49 3.67,3.66 5.49,8.04 5.49,13.14l0.08 4.85c18.55,-15.69 40.37,-23.49 65.45,-23.49 28.34,0 52.55,10.03 72.61,30.09 4.22,4.22 8.04,8.6 11.46,13.3 3.42,-4.7 7.24,-9.08 11.38,-13.3 20.07,-20.06 44.27,-30.09 72.62,-30.09 28.34,0 52.55,10.03 72.61,30.09 20.07,20.07 30.1,44.27 30.1,72.54l0 140.05c0,5.09 -1.83,9.47 -5.49,13.14 -3.66,3.66 -8.04,5.49 -13.14,5.49 -5.1,0 -9.48,-1.83 -13.14,-5.49 -3.66,-3.67 -5.49,-8.05 -5.49,-13.14l0 -140.05c0,-18.08 -6.37,-33.44 -19.19,-46.26 -12.74,-12.74 -28.19,-19.11 -46.26,-19.11 -18.08,0 -33.52,6.37 -46.26,19.11 -12.82,12.82 -19.18,28.18 -19.18,46.26l0 140.05c0,5.09 -1.83,9.47 -5.49,13.14 -3.66,3.66 -8.04,5.49 -13.14,5.49 -5.1,0 -9.48,-1.83 -13.14,-5.49 -3.66,-3.67 -5.49,-8.05 -5.49,-13.14l0 -140.05c0,-18.08 -6.37,-33.44 -19.19,-46.26 -12.74,-12.74 -28.19,-19.11 -46.26,-19.11 -18.08,0 -33.52,6.37 -46.26,19.11 -12.82,12.82 -19.19,28.18 -19.19,46.26l0 140.05z"/>
   <path fill="#FEFEFE" fill-rule="nonzero" d="M639.12 116.58c-25.8,0 -47.85,9.08 -66.08,27.31 -18.24,18.23 -27.31,40.2 -27.31,66.08 0,25.8 9.08,47.85 27.31,66.08 18.23,18.23 40.29,27.31 66.08,27.31 25.87,0 47.85,-9.07 66.08,-27.31 18.24,-18.23 27.31,-40.29 27.31,-66.08 0,-25.88 -9.07,-47.85 -27.31,-66.08 -18.23,-18.24 -40.21,-27.31 -66.08,-27.31zm93.39 184.88c-26.11,26.12 -57.24,39.17 -93.39,39.17 -36.07,0 -66.88,-12.74 -92.36,-38.3 -25.56,-25.48 -38.29,-56.29 -38.29,-92.36 0,-36.07 12.74,-66.88 38.29,-92.36 25.48,-25.56 56.29,-38.3 92.36,-38.3 36.07,0 66.88,12.74 92.36,38.3 25.55,25.48 38.29,56.29 38.29,92.36l0 112.02c0,5.09 -1.83,9.47 -5.49,13.14 -3.67,3.66 -8.04,5.49 -13.14,5.49 -5.1,0 -9.47,-1.83 -13.14,-5.49 -3.66,-3.67 -5.49,-8.05 -5.49,-13.14l0 -20.54z"/>
   <path fill="#FEFEFE" fill-rule="nonzero" d="M937.71 116.58c-25.8,0 -47.86,9.08 -66.09,27.31 -18.23,18.23 -27.31,40.2 -27.31,66.08 0,25.8 9.08,47.85 27.31,66.08 18.23,18.23 40.29,27.31 66.09,27.31 25.87,0 47.85,-9.07 66.08,-27.31 18.23,-18.23 27.31,-40.29 27.31,-66.08 0,-25.88 -9.07,-47.85 -27.31,-66.08 -18.23,-18.24 -40.21,-27.31 -66.08,-27.31zm93.39 184.88c-0.31,0.32 -0.64,0.64 -0.95,0.95 -25.48,25.48 -56.29,38.22 -92.43,38.22 -36.07,0 -66.88,-12.74 -92.36,-38.3 -25.56,-25.48 -38.3,-56.29 -38.3,-92.36 0,-36.07 12.74,-66.88 38.3,-92.36 25.48,-25.56 56.29,-38.3 92.36,-38.3 36.07,0 66.87,12.74 92.36,38.22 25.56,25.56 38.3,56.29 38.3,92.36l0 130.58c0,27.23 -9.79,50.87 -29.38,70.94 -27.39,27.31 -60.43,41 -99.2,41 -38.69,0 -71.74,-13.7 -98.97,-41 -10.11,-9.96 -18.31,-20.78 -24.68,-32.4 -1.91,-2.79 -2.79,-6.05 -2.79,-9.8 0,-5.17 1.83,-9.55 5.49,-13.21 3.59,-3.66 8.04,-5.49 13.14,-5.42 5.09,-0.08 9.55,1.75 13.3,5.34 1.59,1.67 2.86,3.58 3.98,5.57 4.7,8.44 10.67,16.24 17.99,23.57 20.06,20.06 44.27,30.09 72.62,30.09 28.26,0 52.46,-10.03 72.53,-30.01 12.5,-14.97 18.71,-29.78 18.71,-44.51l0 -39.17z"/>
   <path fill="#FEFEFE" fill-rule="nonzero" d="M1217.59 97.95c0,-5.1 1.83,-9.48 5.49,-13.14 3.66,-3.66 8.04,-5.49 13.14,-5.49 5.09,0 9.47,1.83 13.13,5.49 3.66,3.66 5.49,8.04 5.49,13.14l0 15.13c23.33,-22.53 51.36,-33.76 84,-33.76 33.52,0 62.1,11.86 85.83,35.59 23.72,23.73 35.59,52.31 35.59,85.75l0 121.34c0,5.09 -1.83,9.47 -5.49,13.14 -3.66,3.66 -8.04,5.49 -13.14,5.49 -5.09,0 -9.47,-1.83 -13.13,-5.49 -3.66,-3.67 -5.49,-8.05 -5.49,-13.14l0 -121.42c0,-23.17 -8.2,-42.99 -24.61,-59.39 -16.48,-16.4 -36.3,-24.61 -59.47,-24.61 -23.17,0 -42.99,8.2 -59.48,24.61 -16.4,16.4 -24.6,36.22 -24.6,59.39l0 121.42c0,5.09 -1.83,9.47 -5.49,13.14 -3.66,3.66 -8.04,5.49 -13.13,5.49 -5.1,0 -9.48,-1.83 -13.14,-5.49 -3.66,-3.67 -5.49,-8.05 -5.49,-13.14l0 -224.04z"/>
   <path fill="#FEFEFE" fill-rule="nonzero" d="M1719.83 191.58c-3.43,-17.99 -11.94,-33.84 -25.64,-47.61 -18.15,-18.23 -40.21,-27.39 -66,-27.39 -25.8,0 -47.86,9.16 -66.01,27.39 -13.69,13.78 -22.21,29.62 -25.63,47.61l183.28 0zm-19.83 85.51c5.18,0 9.56,1.83 13.22,5.49 3.66,3.66 5.49,8.04 5.49,13.22 0,5.09 -1.83,9.55 -5.42,13.3 -24.05,21.02 -52.47,31.53 -85.11,31.53 -36.07,0 -66.88,-12.74 -92.36,-38.3 -25.48,-25.48 -38.3,-56.29 -38.3,-92.36 0,-36.07 12.82,-66.88 38.3,-92.36 25.48,-25.56 56.29,-38.3 92.36,-38.3 36.07,0 66.87,12.74 92.36,38.3 25.48,25.56 38.3,56.37 38.3,92.52 0,5.17 -1.83,9.55 -5.49,13.21 -3.66,3.66 -8.04,5.49 -13.21,5.49l-203.58 0c3.42,17.84 11.94,33.6 25.63,47.29 18.15,18.15 40.21,27.22 66.01,27.22 23.32,0 43.39,-7.4 60.19,-22.29 3.43,-2.63 7.32,-3.98 11.62,-3.98z"/>
   <g>
    <path fill="#CF0000" fill-rule="nonzero" d="M1124.27 98.01c0,-5.09 1.83,-9.47 5.49,-13.14 3.66,-3.67 8.04,-5.49 13.14,-5.49 5.09,0 9.47,1.83 13.14,5.49 3.66,3.66 5.49,8.04 5.49,13.14l0 223.98c0,5.1 -1.83,9.48 -5.49,13.14 -3.66,3.66 -8.04,5.49 -13.14,5.49 -5.1,0 -9.48,-1.83 -13.14,-5.49 -3.66,-3.66 -5.49,-8.04 -5.49,-13.14l0 -223.98z"/>
    <path fill="#CF0000" fill-rule="nonzero" d="M1166.31 23.41c0,6.37 -2.31,11.86 -6.84,16.48 -4.62,4.62 -10.11,6.93 -16.48,6.93 -6.37,0 -11.86,-2.31 -16.4,-6.93 -4.62,-4.62 -6.93,-10.11 -6.93,-16.48 0,-6.37 2.31,-11.86 6.93,-16.48 4.54,-4.62 10.03,-6.93 16.4,-6.93 6.37,0 11.86,2.31 16.48,6.93 4.54,4.62 6.84,10.11 6.84,16.48z"/>
   </g>
  </g>
  <path fill="#FEFEFE" fill-rule="nonzero" d="M92.91 642.5l0 -136.69 18.14 0 0 120.66 67.2 0 0 16.03 -85.33 0zm172.42 -32.07l17.37 2.29c-2.7,10.09 -7.76,17.94 -15.14,23.52 -7.38,5.56 -16.8,8.36 -28.28,8.36 -14.45,0 -25.9,-4.45 -34.36,-13.36 -8.47,-8.88 -12.69,-21.38 -12.69,-37.44 0,-16.61 4.26,-29.53 12.82,-38.7 8.56,-9.19 19.66,-13.78 33.31,-13.78 13.21,0 23.99,4.49 32.36,13.49 8.36,9 12.57,21.67 12.57,37.99 0,0.99 -0.04,2.48 -0.09,4.46l-73.79 0c0.64,10.85 3.69,19.18 9.23,24.94 5.51,5.76 12.41,8.66 20.65,8.66 6.14,0 11.39,-1.62 15.72,-4.87 4.36,-3.24 7.79,-8.43 10.34,-15.55zm-54.98 -26.92l55.17 0c-0.73,-8.33 -2.86,-14.57 -6.33,-18.74 -5.32,-6.46 -12.25,-9.71 -20.75,-9.71 -7.7,0 -14.16,2.57 -19.41,7.73 -5.22,5.15 -8.11,12.06 -8.68,20.71zm130.04 44.01l2.3 14.83c-4.71,0.99 -8.94,1.49 -12.63,1.49 -6.08,0 -10.78,-0.95 -14.16,-2.89 -3.34,-1.94 -5.7,-4.45 -7.07,-7.61 -1.37,-3.15 -2.03,-9.77 -2.03,-19.85l0 -57.08 -12.41 0 0 -12.98 12.41 0 0 -24.5 16.79 -10.09 0 34.59 16.8 0 0 12.98 -16.8 0 0 58.04c0,4.8 0.29,7.89 0.89,9.26 0.57,1.37 1.53,2.45 2.86,3.28 1.33,0.8 3.24,1.21 5.73,1.21 1.84,0 4.3,-0.23 7.32,-0.67zm15.82 -103.57l0 -19.47 17.94 0 0 15.46c0,8.27 -0.95,14.25 -2.9,17.88 -2.7,5.04 -6.87,8.79 -12.57,11.33l-4.01 -6.62c3.38,-1.37 5.86,-3.5 7.51,-6.46 1.66,-2.93 2.57,-6.97 2.77,-12.12l-8.75 0zm33.06 88.96l16.61 -2.67c0.93,6.65 3.53,11.74 7.8,15.3 4.26,3.53 10.24,5.32 17.88,5.32 7.73,0 13.46,-1.56 17.21,-4.71 3.72,-3.12 5.6,-6.81 5.6,-11.04 0,-3.79 -1.69,-6.78 -5.03,-8.94 -2.35,-1.5 -8.08,-3.37 -17.19,-5.69 -12.28,-3.09 -20.77,-5.76 -25.54,-8.02 -4.74,-2.29 -8.34,-5.4 -10.79,-9.42 -2.45,-3.97 -3.69,-8.4 -3.69,-13.23 0,-4.42 1.02,-8.49 3.03,-12.25 2.04,-3.75 4.77,-6.87 8.24,-9.35 2.61,-1.91 6.18,-3.53 10.66,-4.87 4.52,-1.33 9.32,-2.01 14.48,-2.01 7.76,0 14.57,1.11 20.42,3.38 5.89,2.23 10.22,5.28 13.02,9.1 2.77,3.85 4.71,8.97 5.76,15.4l-16.42 2.29c-0.73,-5.15 -2.9,-9.2 -6.46,-12.09 -3.56,-2.9 -8.59,-4.33 -15.11,-4.33 -7.67,0 -13.17,1.27 -16.45,3.82 -3.28,2.54 -4.93,5.53 -4.93,8.94 0,2.16 0.66,4.14 2.03,5.88 1.37,1.78 3.5,3.28 6.43,4.45 1.69,0.64 6.59,2.07 14.8,4.3 11.84,3.15 20.11,5.76 24.82,7.76 4.71,2.01 8.4,4.97 11.07,8.79 2.7,3.85 4.04,8.62 4.04,14.35 0,5.56 -1.62,10.81 -4.9,15.75 -3.28,4.93 -7.99,8.75 -14.13,11.46 -6.17,2.7 -13.14,4.04 -20.91,4.04 -12.85,0 -22.69,-2.67 -29.43,-7.98 -6.74,-5.35 -11.04,-13.24 -12.92,-23.71zm170.64 29.59l-15.65 0 0 -136.69 16.8 0 0 48.78c7.1,-8.85 16.13,-13.27 27.15,-13.27 6.08,0 11.87,1.21 17.3,3.66 5.44,2.45 9.9,5.92 13.43,10.35 3.5,4.45 6.27,9.8 8.25,16.06 2,6.24 2.99,12.95 2.99,20.08 0,16.93 -4.2,30.04 -12.57,39.26 -8.4,9.26 -18.46,13.87 -30.2,13.87 -11.67,0 -20.84,-4.87 -27.49,-14.57l0 12.47zm-0.19 -50.27c0,11.83 1.62,20.4 4.84,25.67 5.28,8.63 12.41,12.95 21.41,12.95 7.35,0 13.68,-3.18 18.99,-9.55 5.35,-6.36 8.02,-15.84 8.02,-28.44 0,-12.92 -2.55,-22.43 -7.67,-28.57 -5.12,-6.14 -11.33,-9.22 -18.58,-9.22 -7.35,0 -13.68,3.18 -19,9.54 -5.34,6.36 -8.02,15.56 -8.02,27.62zm158.49 18.2l17.37 2.29c-2.7,10.09 -7.76,17.94 -15.15,23.52 -7.38,5.56 -16.8,8.36 -28.28,8.36 -14.45,0 -25.9,-4.45 -34.37,-13.36 -8.47,-8.88 -12.69,-21.38 -12.69,-37.44 0,-16.61 4.26,-29.53 12.82,-38.7 8.56,-9.19 19.67,-13.78 33.31,-13.78 13.21,0 23.99,4.49 32.36,13.49 8.36,9 12.57,21.67 12.57,37.99 0,0.99 -0.04,2.48 -0.09,4.46l-73.78 0c0.63,10.85 3.69,19.18 9.22,24.94 5.51,5.76 12.41,8.66 20.65,8.66 6.14,0 11.39,-1.62 15.71,-4.87 4.36,-3.24 7.8,-8.43 10.35,-15.55zm-54.98 -26.92l55.17 0c-0.73,-8.33 -2.86,-14.57 -6.33,-18.74 -5.32,-6.46 -12.25,-9.71 -20.75,-9.71 -7.7,0 -14.16,2.57 -19.41,7.73 -5.22,5.15 -8.11,12.06 -8.68,20.71zm183.07 44.01l2.3 14.83c-4.71,0.99 -8.94,1.49 -12.63,1.49 -6.08,0 -10.78,-0.95 -14.16,-2.89 -3.34,-1.94 -5.7,-4.45 -7.07,-7.61 -1.37,-3.15 -2.03,-9.77 -2.03,-19.85l0 -57.08 -12.41 0 0 -12.98 12.41 0 0 -24.5 16.79 -10.09 0 34.59 16.8 0 0 12.98 -16.8 0 0 58.04c0,4.8 0.29,7.89 0.89,9.26 0.57,1.37 1.53,2.45 2.86,3.28 1.33,0.8 3.24,1.21 5.73,1.21 1.84,0 4.3,-0.23 7.32,-0.67zm16.58 14.98l0 -136.69 16.8 0 0 49.19c7.8,-9.13 17.63,-13.68 29.53,-13.68 7.29,0 13.62,1.43 19.03,4.33 5.38,2.89 9.22,6.87 11.55,11.96 2.33,5.09 3.47,12.5 3.47,22.18l0 62.71 -16.8 0 0 -62.65c0,-8.37 -1.81,-14.47 -5.4,-18.29 -3.63,-3.82 -8.72,-5.73 -15.34,-5.73 -4.93,0 -9.58,1.28 -13.94,3.85 -4.36,2.58 -7.44,6.08 -9.32,10.5 -1.84,4.39 -2.77,10.47 -2.77,18.23l0 54.09 -16.8 0zm173.76 -32.07l17.37 2.29c-2.7,10.09 -7.76,17.94 -15.14,23.52 -7.38,5.56 -16.8,8.36 -28.28,8.36 -14.45,0 -25.9,-4.45 -34.36,-13.36 -8.47,-8.88 -12.69,-21.38 -12.69,-37.44 0,-16.61 4.26,-29.53 12.82,-38.7 8.56,-9.19 19.66,-13.78 33.31,-13.78 13.21,0 23.99,4.49 32.36,13.49 8.36,9 12.57,21.67 12.57,37.99 0,0.99 -0.04,2.48 -0.09,4.46l-73.79 0c0.64,10.85 3.69,19.18 9.23,24.94 5.51,5.76 12.41,8.66 20.65,8.66 6.14,0 11.39,-1.62 15.72,-4.87 4.36,-3.24 7.79,-8.43 10.34,-15.55zm-54.98 -26.92l55.17 0c-0.73,-8.33 -2.86,-14.57 -6.33,-18.74 -5.32,-6.46 -12.25,-9.71 -20.75,-9.71 -7.7,0 -14.16,2.57 -19.41,7.73 -5.22,5.15 -8.11,12.06 -8.68,20.71zm211.33 22.72l16.42 2.29c-1.81,11.29 -6.4,20.11 -13.81,26.51 -7.42,6.39 -16.55,9.57 -27.33,9.57 -13.52,0 -24.41,-4.42 -32.61,-13.26 -8.24,-8.85 -12.35,-21.51 -12.35,-37.99 0,-10.69 1.79,-20.02 5.32,-28.03 3.53,-7.99 8.9,-14 16.16,-17.98 7.22,-4.01 15.08,-6.01 23.61,-6.01 10.72,0 19.53,2.7 26.35,8.15 6.84,5.44 11.23,13.17 13.14,23.16l-16.23 2.48c-1.56,-6.65 -4.29,-11.64 -8.27,-15.02 -3.95,-3.34 -8.72,-5.03 -14.32,-5.03 -8.46,0 -15.33,3.02 -20.65,9.07 -5.28,6.08 -7.92,15.62 -7.92,28.73 0,13.3 2.54,22.94 7.64,28.95 5.12,6.02 11.77,9.04 19.95,9.04 6.61,0 12.12,-2.01 16.51,-6.05 4.42,-4.01 7.22,-10.22 8.4,-18.58zm30.73 36.27l0 -136.69 16.8 0 0 49.19c7.79,-9.13 17.63,-13.68 29.52,-13.68 7.29,0 13.62,1.43 19.03,4.33 5.38,2.89 9.23,6.87 11.55,11.96 2.32,5.09 3.47,12.5 3.47,22.18l0 62.71 -16.8 0 0 -62.65c0,-8.37 -1.82,-14.47 -5.41,-18.29 -3.63,-3.82 -8.72,-5.73 -15.34,-5.73 -4.93,0 -9.58,1.28 -13.94,3.85 -4.36,2.58 -7.44,6.08 -9.32,10.5 -1.84,4.39 -2.77,10.47 -2.77,18.23l0 54.09 -16.8 0zm170.9 -12.41c-6.24,5.31 -12.25,9.03 -18.01,11.23 -5.76,2.2 -11.93,3.28 -18.55,3.28 -10.88,0 -19.25,-2.64 -25.11,-7.96 -5.86,-5.28 -8.79,-12.06 -8.79,-20.3 0,-4.84 1.11,-9.26 3.32,-13.26 2.22,-4.01 5.12,-7.19 8.68,-9.61 3.59,-2.42 7.61,-4.26 12.09,-5.51 3.31,-0.86 8.3,-1.68 14.95,-2.52 13.56,-1.59 23.58,-3.53 29.98,-5.75 0.06,-2.3 0.09,-3.76 0.09,-4.36 0,-6.81 -1.59,-11.62 -4.77,-14.41 -4.29,-3.79 -10.69,-5.66 -19.16,-5.66 -7.92,0 -13.78,1.4 -17.53,4.17 -3.79,2.77 -6.56,7.66 -8.37,14.73l-16.42 -2.29c1.5,-7.04 3.95,-12.73 7.39,-17.06 3.43,-4.33 8.4,-7.64 14.89,-10 6.46,-2.32 14,-3.5 22.53,-3.5 8.46,0 15.37,0.99 20.68,2.99 5.28,2.01 9.2,4.49 11.68,7.51 2.48,3.03 4.23,6.84 5.25,11.46 0.54,2.86 0.82,8.02 0.82,15.43l0 22.28c0,15.55 0.35,25.39 1.05,29.56 0.67,4.17 2.07,8.15 4.11,11.96l-17.57 0c-1.68,-3.53 -2.77,-7.67 -3.24,-12.41zm-1.34 -37.23c-6.11,2.48 -15.27,4.58 -27.49,6.3 -6.94,0.98 -11.84,2.1 -14.7,3.34 -2.86,1.24 -5.06,3.06 -6.62,5.41 -1.56,2.38 -2.35,5.03 -2.35,7.96 0,4.42 1.68,8.15 5.09,11.1 3.41,2.96 8.37,4.45 14.89,4.45 6.46,0 12.22,-1.4 17.28,-4.23 5.02,-2.8 8.75,-6.64 11.1,-11.52 1.81,-3.78 2.7,-9.35 2.7,-16.7l0.09 -6.11zm42.79 49.63l0 -99.08 15.09 0 0 14.06c7.25,-10.78 17.75,-16.16 31.47,-16.16 5.98,0 11.45,1.08 16.45,3.21 4.99,2.13 8.75,4.96 11.23,8.43 2.48,3.47 4.23,7.61 5.22,12.38 0.6,3.12 0.92,8.56 0.92,16.33l0 60.83 -16.8 0 0 -60.2c0,-6.84 -0.64,-11.96 -1.94,-15.33 -1.3,-3.38 -3.63,-6.08 -6.93,-8.12 -3.31,-2.01 -7.22,-3.03 -11.68,-3.03 -7.13,0 -13.27,2.26 -18.45,6.81 -5.19,4.52 -7.77,13.14 -7.77,25.8l0 54.06 -16.8 0zm103.09 8.21l16.23 2.29c0.67,5.03 2.58,8.69 5.69,11.01 4.17,3.09 9.87,4.65 17.09,4.65 7.76,0 13.78,-1.56 18.01,-4.65 4.23,-3.08 7.1,-7.45 8.59,-13.01 0.86,-3.4 1.28,-10.56 1.21,-21.48 -7.35,8.66 -16.48,12.98 -27.42,12.98 -13.62,0 -24.19,-4.9 -31.63,-14.73 -7.48,-9.8 -11.2,-21.57 -11.2,-35.29 0,-9.45 1.72,-18.17 5.12,-26.15 3.41,-7.99 8.37,-14.13 14.86,-18.49 6.49,-4.36 14.13,-6.52 22.91,-6.52 11.68,0 21.32,4.77 28.89,14.32l0 -12.22 15.46 0 0 85.56c0,15.43 -1.56,26.35 -4.71,32.77 -3.12,6.43 -8.12,11.52 -14.89,15.24 -6.81,3.72 -15.18,5.6 -25.11,5.6 -11.8,0 -21.32,-2.65 -28.57,-7.96 -7.28,-5.28 -10.78,-13.27 -10.53,-23.93zm13.75 -59.43c0,12.95 2.57,22.4 7.73,28.35 5.19,5.95 11.64,8.94 19.41,8.94 7.73,0 14.19,-2.96 19.44,-8.87 5.22,-5.92 7.83,-15.21 7.83,-27.87 0,-12.1 -2.71,-21.22 -8.09,-27.37 -5.38,-6.14 -11.87,-9.2 -19.44,-9.2 -7.48,0 -13.81,3.03 -19.06,9.07 -5.22,6.05 -7.83,15.02 -7.83,26.95zm163.1 19.16l17.37 2.29c-2.7,10.09 -7.76,17.94 -15.15,23.52 -7.38,5.56 -16.8,8.36 -28.28,8.36 -14.45,0 -25.9,-4.45 -34.37,-13.36 -8.47,-8.88 -12.69,-21.38 -12.69,-37.44 0,-16.61 4.26,-29.53 12.82,-38.7 8.56,-9.19 19.67,-13.78 33.31,-13.78 13.21,0 23.99,4.49 32.36,13.49 8.36,9 12.57,21.67 12.57,37.99 0,0.99 -0.04,2.48 -0.09,4.46l-73.78 0c0.63,10.85 3.69,19.18 9.22,24.94 5.51,5.76 12.41,8.66 20.65,8.66 6.14,0 11.39,-1.62 15.71,-4.87 4.36,-3.24 7.79,-8.43 10.35,-15.55zm-54.98 -26.92l55.17 0c-0.73,-8.33 -2.86,-14.57 -6.33,-18.74 -5.32,-6.46 -12.25,-9.71 -20.75,-9.71 -7.7,0 -14.16,2.57 -19.41,7.73 -5.22,5.15 -8.11,12.06 -8.68,20.71z"/>
 </g>
</svg>
